<?xml version="1.0" encoding="UTF-8"?>
<svg id="Capa_1" data-name="Capa 1" xmlns="http://www.w3.org/2000/svg" viewBox="0 0 500 500">
  <defs>
    <style>
      .cls-1 {
        fill: none;
        stroke: #919be3;
        stroke-linecap: round;
        stroke-linejoin: round;
        stroke-width: 18px;
      }

      .cls-2 {
        fill: #919be3;
        stroke-width: 0px;
      }
    </style>
  </defs>
  <path class="cls-1" d="M435.67,284.25l-64.58-60.67,106.66-70.45-124.27,15.66c-.68-.86,16.63-139.93,16.63-139.93l-86.11,91-58.71-77.32-22.51,112.06H45.2c-12.68,0-22.95,10.28-22.95,22.95v211.44c0,12.68,10.28,22.95,22.95,22.95h32.33v59.2s46.11-46.11,59.2-59.2h180.58c12.68,0,22.95-10.28,22.95-22.95v-99.85l95.41-4.89Z"/>
  <path class="cls-2" d="M100.12,390.96c-7.98,0-14.78-2.76-20.4-8.3-5.62-5.53-8.43-12.38-8.43-20.54s2.81-14.78,8.43-20.4c5.62-5.62,12.42-8.43,20.4-8.43s14.83,2.81,20.54,8.43c5.71,5.62,8.57,12.43,8.57,20.4s-2.81,15.01-8.43,20.54c-5.62,5.53-12.51,8.3-20.68,8.3ZM96.27,194.27h7.52c12.3,0,22.17,10.15,21.83,22.45l-1.82,64.88-1.97,25.29c-.88,11.37-10.37,20.14-21.77,20.14h0c-11.46,0-20.96-8.85-21.78-20.28l-1.82-25.42-2.02-64.54c-.39-12.32,9.5-22.52,21.83-22.52Z"/>
  <path class="cls-2" d="M182.73,390.53c-7.95.76-14.98-1.35-21.1-6.33-6.12-4.97-9.57-11.52-10.34-19.65-.76-7.94,1.4-14.98,6.46-21.11,5.06-6.13,11.57-9.57,19.51-10.33,7.94-.76,15.03,1.4,21.25,6.45,6.22,5.06,9.71,11.56,10.46,19.5s-1.38,15.21-6.45,21.25c-5.07,6.04-11.67,9.45-19.8,10.22ZM160.26,195.09l7.48-.71c12.24-1.16,23.03,8.01,23.86,20.28l4.33,64.76.43,25.36c.2,11.4-8.41,21.03-19.77,22.11h0c-11.4,1.08-21.71-6.83-23.6-18.13l-4.22-25.14-8.12-64.06c-1.55-12.23,7.32-23.32,19.6-24.48Z"/>
  <path class="cls-2" d="M231.38,359.49c-7.73-1.97-13.64-6.33-17.72-13.09-4.08-6.75-5.11-14.08-3.09-21.99,1.97-7.73,6.38-13.63,13.22-17.68,6.83-4.06,14.12-5.1,21.86-3.12,7.73,1.97,13.67,6.39,17.82,13.25,4.14,6.86,5.23,14.16,3.26,21.89s-6.44,13.85-13.25,17.82c-6.82,3.97-14.18,4.94-22.09,2.92ZM276.3,167.96l7.29,1.86c11.92,3.04,18.97,15.32,15.6,27.15l-17.81,62.41-8.16,24.02c-3.67,10.8-15.03,16.95-26.08,14.13h0c-11.1-2.83-18.12-13.76-16.09-25.04l4.53-25.08,14.01-63.03c2.67-12.03,14.77-19.47,26.72-16.42Z"/>
</svg>