<?xml version="1.0" encoding="UTF-8"?>
<svg id="Capa_1" data-name="Capa 1" xmlns="http://www.w3.org/2000/svg" viewBox="0 0 500 500">
  <defs>
    <style>
      .cls-1 {
        fill: none;
        stroke: #0019d4;
        stroke-linecap: round;
        stroke-linejoin: round;
        stroke-width: 17.61px;
      }
    </style>
  </defs>
  <path class="cls-1" d="M83.11,339.42c-3.89,32.35-8.49,64.62-12.03,97.01,6.55-1.51.41-3.76,0,0,27.58-7.16,56.22-12.89,82.57-22.05,10.31,3.44,19.47,9.16,29.78,13.75,17.18,5.73,34.36,10.31,51.55,11.45,13.75,1.15,27.49,1.15,41.24-1.15,26.35-5.73,54.98-10.31,74.46-28.64,41.24-21.76,68.73-63,82.47-106.53,14.89-51.55,6.87-104.24-19.47-151.2l-3.44-3.44c-2.29-5.73-6.87-11.45-11.45-16.04-1.15-1.15-1.15-3.44-2.29-4.58-27.49-32.07-61.86-53.84-104.24-63-4.58-1.15-10.31-2.29-14.89-3.44-50.4-6.87-100.8,4.58-142.04,36.65-57.27,44.67-87.06,116.84-72.01,186.82"/>
  <path class="cls-1" d="M197.75,229.39c-3.46,3,19.47,36.65,29.78,45.82s37.8,28.64,44.67,28.64c6.87,0,22.91-27.49,26.35-27.49,3.44,0,50.91,22.91,52.95,27.49s-.26,25.2-14,36.65c-13.75,11.45-34.94,13.17-34.94,13.17,0,0-45.82-5.73-83.62-35.51-31.34-24.69-57.83-68.16-57.83-68.16,0,0-23.22-36.33-13.19-70.45,5.73-19.47,14.89-26.35,24.05-29.78,9.16-3.44,20.98-2.29,24.81,0s22.15,48.11,21.01,53.84-11.45,18.33-20.05,25.77Z"/>
</svg>