<?xml version="1.0" encoding="UTF-8"?>
<svg id="Capa_1" data-name="Capa 1" xmlns="http://www.w3.org/2000/svg" viewBox="0 0 500 500">
  <defs>
    <style>
      .cls-1 {
        fill: none;
        stroke: #919be3;
        stroke-linecap: round;
        stroke-linejoin: round;
        stroke-width: 18px;
      }
    </style>
  </defs>
  <g>
    <path class="cls-1" d="M260.67,191.13c-12.67,9.87-24.67,18.87-38.67,28.87-4,2-8,1-12,1l-84-6-8,8c-1,1-3,1-4,2-8,8-17,15-26,22-1,1-2,3-3,4-22,18-41,35-63,52,.32.32.65.74,1.07.94-.34-.41-.68-.65-1.07-.94,57,57,115,115,172,172,25-23,49-45,76-68,7-6,12-13,19-19,2-1,4-2,6-2,29,3,57,3,85,5,2,0,4-1,6-2,35-24,64-48,95.48-73.23-1.27-1.01-1.55-.04,0,0-26.86-24.74-54.66-48.43-82.03-72.6-7.58-6.7-15.13-13.43-22.62-20.23"/>
    <line class="cls-1" x1="138.47" y1="236.64" x2="274.47" y2="372.64"/>
    <line class="cls-1" x1="240" y1="239" x2="370.5" y2="369.5"/>
  </g>
  <path class="cls-1" d="M334,21.8h0c46.37,0,84.02,37.65,84.02,84.02v84.02h-84.02c-46.37,0-84.02-37.65-84.02-84.02h0c0-46.37,37.65-84.02,84.02-84.02Z" transform="translate(172.65 -205.18) rotate(45)"/>
  <circle class="cls-1" cx="334" cy="106" r="32"/>
</svg>