<?xml version="1.0" encoding="UTF-8"?>
<svg id="Capa_1" data-name="Capa 1" xmlns="http://www.w3.org/2000/svg" viewBox="0 0 500 500">
  <defs>
    <style>
      .cls-1 {
        stroke-width: 18px;
      }

      .cls-1, .cls-2 {
        fill: none;
        stroke: #919be3;
        stroke-linecap: round;
        stroke-linejoin: round;
      }

      .cls-2 {
        stroke-width: 25.45px;
      }

      .cls-3 {
        fill: #919be3;
        stroke-width: 0px;
      }
    </style>
  </defs>
  <path class="cls-1" d="M267.15,353.4H60.95c-4,0-8-3-12-5-5-4-7-11-7-17-2-59-1-118-1-177"/>
  <path class="cls-1" d="M47.95,89.4c142,1,283-3,425,2,3,3,7,5,7,9,3,19,1,38,1,57,2,60,1,121-1,181,0,2-2,4-3.27,6.38"/>
  <path class="cls-3" d="M17.78,125.98c17.25-3.59,34.6-5.96,52.04-8.03,1.32-.18,2.65-.28,3.96.01,5.24.99,8.52,6.76,6.87,11.77,0,0-.07.24-.07.24l-.53,1.95c-1.77,6.45-3.68,13-5.57,19.41-.3,1.17-1.44,4.64-1.75,5.8,0,0-.07.24-.07.24-.02.07.05-.13.06-.19.38-1.28.19-2.81-.42-4.01-1.49-3.14-5.93-3.91-8.45-1.69,0,0,3.08-2.6,3.08-2.6,8.92-7.55,21.98-18.51,30.96-25.9,0,0,6.26-5.1,6.26-5.1,0,0,.2-.16.2-.16l.25-.2c1.86-1.49,4.38-2.28,6.75-2.1,5.03.24,9.31,4.86,9.11,9.92-.02.24-.02,2.21-.04,2.52-.08,5.12-.4,18.93-.53,24.22,0,0-.06,2.02-.06,2.02,0,0,0,.25,0,.25-.02-3.89-4.87-5.96-7.65-3.27,4.17-3.68,26-22.99,30.64-27.07.49-.42,1.79-1.59,2.27-2.01,4.38-4.31,12.09-1.71,12.87,4.38.16.97.01,2.06-.05,3.02-.31,4.11-1.22,17.83-1.52,22.16-.09,1.29-.32,4.79-.41,6.04,0,0-.01.19-.01.19.01-.26-.04-.49-.12-.75-.43-1.44-2.38-2.05-3.52-1.06,0,0,.21-.14.21-.14,5.69-3.9,11.6-7.53,17.01-11.8,9.14-7.05,17.77-14.76,26.63-22.17,5-3.64,12.36.67,11.68,6.88-1.11,6.44-4.01,18.92-5.37,25.43-.12.65-.52,2.33-.64,2.96,0,0-.11.49-.11.49,0,0-.03.12-.03.12.7-2.48-1.55-5.49-4.5-5.05-.76.08-1.42.38-1.95.75-.02.01.05-.04.07-.06,0,0,.2-.16.2-.16,0,0,.4-.31.4-.31,11.47-9.06,24.66-19.5,36.24-28.35,10.09-8.07,23.44-15.51,36.86-11.12,7.45,2.8,13.56,9.07,15.14,17.19,2.09,10.99-4.86,21.47-12.62,27.57-7.35,5.95-17.1,8.66-26.48,8.31-3.11-.16-6.27-.62-9.5-1.96-4.81-2.08-2.67-9.19,2.39-8.43,4.27.76,9.36-.08,13.61-1.45,4.31-1.41,8.09-3.42,11.35-6.57,6.07-5.8,11.32-15.91,1.08-20.29-7.1-1.91-16.19,3.83-22.17,8.3-10.16,7.57-22.79,16.27-33.2,23.7-1.36,1-4.04,2.82-5.36,3.78-6.01,4.77-14.87-.08-13.99-7.65.07-.6.22-1.25.39-1.81.45-1.74,4.56-16.4,5.12-18.49.74-2.59,1.44-5.19,2.23-7.77.09-.23.24-.98.13-.23-.19,2.91,3.11,4.16,4.78,2.7-13.9,9.37-28.12,18.31-40.59,29.56-1.41,1.18-2.75,2.46-4.25,3.52-2.56,1.65-6.25,1.17-8.32-1.05-1.34-1.33-2.01-3.3-1.9-5.18,0,0,.04-2.02.04-2.02l.08-4.04c.1-5.26.4-18.9.44-23.7-.11,2.82,3.33,4.18,5.23,2.44,0,0-.09.09-.09.09l-.72.71-1.43,1.42-22.94,22.75c-.51.49-6.25,6.27-6.71,6.58-5.38,4.49-14.07.78-14.6-6.2-.27-6.94-.5-20.49-.65-27.37-.03-.42-.02-2.15-.04-2.52,0,0,0-.13,0-.13,0-.03,0,.15,0,.21.06,3.58,4.07,6.15,7.34,4.68.43-.12,1.17-.65,1.32-.78-3.12,2.73-9.27,8.01-12.44,10.69-6.09,5.23-18.53,15.67-24.71,20.8,0,0-3.11,2.59-3.11,2.59-3.32,2.95-9.02,3.12-12.49.29-3.16-2.31-4.7-6.79-3.58-10.57.49-1.53,1.57-4.85,2.1-6.42,2.11-6.33,4.35-12.78,6.58-19.09,0,0,.68-1.9.68-1.9l.09-.24c.02-.06.03-.08-.01.05-.94,3.16,1.98,6.3,4.82,5.94-1.81.05-3.7.09-5.3.12-16.22.3-32.37.29-48.61-.77-2.67-.18-3.23-4.18-.34-4.84h0Z"/>
  <g>
    <path class="cls-3" d="M362.7,400.22c-13.42,0-25.62-1.94-36.63-5.82-11-3.88-20.75-9.48-29.24-16.82-.08-.07-.17-.15-.25-.22-13.25-11.54-11.6-32.63,3.1-42.26l.13-.09c9.53-6.24,22.05-6.01,31.08.93,2.69,2.07,5.59,3.95,8.7,5.63,8.7,4.72,17.55,7.07,26.57,7.07,6.92,0,12.1-1.36,15.56-4.09,3.46-2.72,5.19-6.08,5.19-10.06,0-2.72-.79-5.13-2.36-7.23-1.57-2.09-4.67-4.14-9.27-6.13-4.61-1.99-11.32-3.93-20.12-5.82-18.45-4.19-33.12-9.48-44.02-15.88-10.9-6.39-18.66-14.15-23.27-23.27-4.61-9.12-6.92-19.54-6.92-31.28,0-12.99,3.35-24.78,10.06-35.37,6.71-10.58,16.29-19.02,28.77-25.31,12.47-6.29,27.3-9.43,44.49-9.43,19.28,0,35.73,3.83,49.36,11.47,1.83,1.03,3.6,2.09,5.32,3.2,15.85,10.21,16.4,33.2,1.1,44.23l-.82.59c-8.51,6.13-19.83,6.74-28.93,1.52-2.27-1.3-4.71-2.41-7.32-3.32-8.07-2.83-15.77-4.24-23.11-4.24-6.5,0-11.69,1.21-15.56,3.61-3.88,2.41-5.82,5.71-5.82,9.9s2.15,7.55,6.45,10.06c4.29,2.52,12.84,5.24,25.62,8.17,17.61,3.98,32.01,9.07,43.23,15.25,11.21,6.18,19.49,13.83,24.84,22.95,5.34,9.12,8.02,20.28,8.02,33.48s-3.36,24.99-10.06,35.37c-6.71,10.38-16.35,18.5-28.92,24.37-12.58,5.86-27.56,8.8-44.96,8.8Z"/>
    <line class="cls-2" x1="340.4" y1="156.62" x2="340.4" y2="430.18"/>
    <line class="cls-2" x1="383.36" y1="156.62" x2="383.36" y2="430.18"/>
  </g>
  <line class="cls-1" x1="78.76" y1="287.52" x2="265" y2="287.52"/>
  <line class="cls-1" x1="128.95" y1="319.4" x2="256.95" y2="319.4"/>
</svg>