<?xml version="1.0" encoding="UTF-8"?>
<svg id="Capa_1" data-name="Capa 1" xmlns="http://www.w3.org/2000/svg" viewBox="0 0 500 500">
  <defs>
    <style>
      .cls-1 {
        fill: #0019d4;
        stroke-width: 0px;
      }

      .cls-2 {
        fill: none;
        stroke: #0019d4;
        stroke-linecap: round;
        stroke-linejoin: round;
        stroke-width: 18px;
      }
    </style>
  </defs>
  <path class="cls-2" d="M267.15,353.4H60.95c-4,0-8-3-12-5-5-4-7-11-7-17-2-59-1-118-1-177"/>
  <path class="cls-2" d="M47.95,89.4c142,1,283-3,425,2,3,3,7,5,7,9,3,19,1,38,1,57,2,60,1,121-1,181,0,2-2,4-3.27,6.38"/>
  <path class="cls-1" d="M17.76,125.6c17.22-3.96,34.54-6.51,51.99-8.71,1.42-.21,2.85-.3,4.27.02,5.86,1.11,9.53,7.56,7.69,13.15,0,0-.06.24-.06.24l-.52,1.95c-1.74,6.46-3.62,13.02-5.49,19.43-.35,1.32-1.45,4.73-1.81,6.04-.02.07.06-.16.08-.23,1.73-6.39-5.84-11.14-10.84-6.96,0,0,3.07-2.61,3.07-2.61,10.14-8.69,20.68-17.35,30.98-25.87.69-.49,6.73-5.52,7.23-5.81,4.78-3.51,11.99-2.27,15.34,2.67,1.43,2.04,2.08,4.5,1.95,6.95,0,0-.04,2.02-.04,2.02-.07,5.42-.47,18.62-.61,24.22,0,0-.06,2.02-.06,2.02,0,0,0,.25,0,.25,0,.11,0-.11,0-.17-.12-3.16-3.06-5.74-6.23-5.34-1.18.1-2.53.77-3.21,1.48,0,0,.38-.33.38-.33l6.08-5.32,24.31-21.29c.49-.42,1.8-1.58,2.28-2,5.23-5.08,14.21-1.43,14.35,5.8.03.7-.08,1.57-.12,2.26-.33,4.11-1.29,17.83-1.6,22.15-.1,1.37-.35,5.01-.44,6.23.11-2.29-2.65-3.84-4.54-2.56-.08.05-.17.12-.23.18l.21-.14c1.26-.85,2.52-1.7,3.79-2.51,14.12-8.66,26.27-19.91,38.76-30.72,4.09-4.08,11.37-2.56,13.48,2.98.5,1.21.64,2.56.54,3.8-.22,1.59-.25,1.42-.31,1.86-.49,2.65-1.06,5.28-1.6,7.92l-3.36,15.8c-.19.9-.55,2.56-.74,3.46,0,0-.03.12-.03.12.45-1.42-.11-3.74-1.38-4.86-1.59-1.79-4.99-1.82-6.57-.55.6-.47,1.6-1.29,2.17-1.73,8.62-6.88,19.86-15.81,28.5-22.55.93-.74,7-5.38,7.93-6.18,4.39-3.37,8.91-6.11,14.12-8.27,6.71-2.76,14.45-4.16,21.97-1.53,7.84,2.95,14.22,9.52,15.89,18.09,1.53,8.04-1.53,15.6-6.05,21.54-5.99,7.89-15.05,13.24-24.78,14.81-6.5.99-12.76,1.07-19.14-1.55-2.59-1.11-3.79-4.1-2.69-6.69.99-2.37,3.53-3.48,5.91-2.98,1.81.22,4.01.16,6.21-.15,6.42-1.01,12.8-3.44,17.45-8.09,3.82-3.89,7.13-8.68,6.26-13.47-.63-2.24-2.74-4-4.88-4.89-6.99-1.74-16.28,4.47-21.8,8.68-6.38,4.62-12.87,9.26-19.32,13.76-2.55,1.85-14.28,9.96-16.54,11.58-2.14,1.46-4.16,3.21-6.91,3.47-6.98.92-12.56-6.02-10.33-12.53.18-.61.63-2.28.82-2.92,1.54-5.42,5.04-18.08,6.65-23.3.09-.22.25-1.04.12-.11-.27,3.6,3.87,5.35,6.11,3.43-13.99,9.25-28.34,18.01-40.68,29.44-1.42,1.21-2.76,2.52-4.29,3.59-2.83,1.83-6.91,1.29-9.19-1.16-1.47-1.46-2.22-3.64-2.11-5.7,0,0,.03-2.02.03-2.02l.07-4.04c.08-5.04.31-18.37.35-23.22,0,0,0-.5,0-.5,0-.19-.01.23-.01.24.16,3.77,4.45,4.82,6.56,2.96-.44.44-1.68,1.68-2.14,2.14,0,0-22.84,22.85-22.84,22.85-.57.55-6.21,6.3-6.75,6.67-5.22,4.4-13.85,1.8-15.86-4.71-.38-1.14-.52-2.28-.53-3.45-.15-7.66-.66-20.7-.72-28.26,0,0,0-.5,0-.5,0,0,0-.13,0-.13,0-.03,0,.19,0,.27,0,.23.03.45.07.68.61,4.86,6.69,7.24,10.45,4.15.31-.25-.07.06-.11.1,0,0-6.09,5.3-6.09,5.3-11.19,9.57-22.59,19.28-33.95,28.63-8.09,6.79-20.45-.53-18.17-10.97,0,0,.14-.58.14-.58l.14-.48s.08-.24.08-.24c2.32-6.99,4.71-14.08,7.21-21,.47-1.46,1.66-4.54,2.14-5.94.02-.07.03-.08-.02.07-.15.52-.2,1.06-.2,1.63-.01,3.24,2.97,6.02,6.23,5.69.07,0-.05,0-.07,0h-.25s-1.01.03-1.01.03c-17.59.26-35.1.15-52.7-1.37-3.09-.27-3.61-4.83-.39-5.6h0Z"/>
  <g>
    <path class="cls-1" d="M362.7,400.22c-13.42,0-25.62-1.94-36.63-5.82-11-3.88-20.75-9.48-29.24-16.82-.08-.07-.17-.15-.25-.22-13.25-11.54-11.6-32.63,3.1-42.26l.13-.09c9.53-6.24,22.05-6.01,31.08.93,2.69,2.07,5.59,3.95,8.7,5.63,8.7,4.72,17.55,7.07,26.57,7.07,6.92,0,12.1-1.36,15.56-4.09,3.46-2.72,5.19-6.08,5.19-10.06,0-2.72-.79-5.13-2.36-7.23-1.57-2.09-4.67-4.14-9.27-6.13-4.61-1.99-11.32-3.93-20.12-5.82-18.45-4.19-33.12-9.48-44.02-15.88-10.9-6.39-18.66-14.15-23.27-23.27-4.61-9.12-6.92-19.54-6.92-31.28,0-12.99,3.35-24.78,10.06-35.37,6.71-10.58,16.29-19.02,28.77-25.31,12.47-6.29,27.3-9.43,44.49-9.43,19.28,0,35.73,3.83,49.36,11.47,1.83,1.03,3.6,2.09,5.32,3.2,15.85,10.21,16.4,33.2,1.1,44.23l-.82.59c-8.51,6.13-19.83,6.74-28.93,1.52-2.27-1.3-4.71-2.41-7.32-3.32-8.07-2.83-15.77-4.24-23.11-4.24-6.5,0-11.69,1.21-15.56,3.61-3.88,2.41-5.82,5.71-5.82,9.9s2.15,7.55,6.45,10.06c4.29,2.52,12.84,5.24,25.62,8.17,17.61,3.98,32.01,9.07,43.23,15.25,11.21,6.18,19.49,13.83,24.84,22.95,5.34,9.12,8.02,20.28,8.02,33.48s-3.36,24.99-10.06,35.37c-6.71,10.38-16.35,18.5-28.92,24.37-12.58,5.86-27.56,8.8-44.96,8.8Z"/>
    <line class="cls-2" x1="340.4" y1="156.62" x2="340.4" y2="430.18"/>
    <line class="cls-2" x1="383.36" y1="156.62" x2="383.36" y2="430.18"/>
  </g>
  <line class="cls-2" x1="78.76" y1="287.52" x2="265" y2="287.52"/>
  <line class="cls-2" x1="128.95" y1="319.4" x2="256.95" y2="319.4"/>
</svg>